<mxfile host="app.diagrams.net" modified="2023-06-18T10:01:13.298Z" agent="Mozilla/5.0 (Macintosh; Intel Mac OS X 10_15_7) AppleWebKit/537.36 (KHTML, like Gecko) Chrome/114.0.0.0 Safari/537.36" etag="A9DvRegxTAG52Nbig1Aq" version="21.3.6" type="github">
  <diagram name="페이지-1" id="XDwKWX2P92btB2QJnYih">
    <mxGraphModel dx="954" dy="534" grid="0" gridSize="10" guides="1" tooltips="1" connect="1" arrows="1" fold="1" page="1" pageScale="1" pageWidth="1200" pageHeight="1920" background="#ffffff" math="0" shadow="0">
      <root>
        <mxCell id="0" />
        <mxCell id="1" parent="0" />
        <mxCell id="_ksSLjebN5ixidT2kmzD-1" value="" style="endArrow=classic;html=1;rounded=0;strokeColor=#000000;" edge="1" parent="1">
          <mxGeometry width="50" height="50" relative="1" as="geometry">
            <mxPoint x="80" y="280" as="sourcePoint" />
            <mxPoint x="850" y="280" as="targetPoint" />
          </mxGeometry>
        </mxCell>
        <mxCell id="_ksSLjebN5ixidT2kmzD-2" value="" style="endArrow=none;html=1;rounded=0;strokeColor=#000000;strokeWidth=3;" edge="1" parent="1">
          <mxGeometry width="50" height="50" relative="1" as="geometry">
            <mxPoint x="463" y="293" as="sourcePoint" />
            <mxPoint x="463" y="268" as="targetPoint" />
          </mxGeometry>
        </mxCell>
        <mxCell id="_ksSLjebN5ixidT2kmzD-5" value="" style="endArrow=none;html=1;rounded=0;strokeColor=#000000;" edge="1" parent="1">
          <mxGeometry width="50" height="50" relative="1" as="geometry">
            <mxPoint x="284" y="289" as="sourcePoint" />
            <mxPoint x="284" y="273" as="targetPoint" />
          </mxGeometry>
        </mxCell>
        <mxCell id="_ksSLjebN5ixidT2kmzD-6" value="" style="endArrow=none;html=1;rounded=0;strokeColor=#000000;" edge="1" parent="1">
          <mxGeometry width="50" height="50" relative="1" as="geometry">
            <mxPoint x="661" y="289" as="sourcePoint" />
            <mxPoint x="661" y="273" as="targetPoint" />
          </mxGeometry>
        </mxCell>
        <mxCell id="_ksSLjebN5ixidT2kmzD-7" value="&lt;font color=&quot;#000000&quot;&gt;6&lt;br&gt;&lt;/font&gt;&lt;font color=&quot;#000000&quot;&gt;&lt;b&gt;오프라인 행사 개최&lt;br&gt;&lt;/b&gt;&lt;/font&gt;&lt;b style=&quot;color: rgb(0, 0, 0);&quot;&gt;2차 설문조사 실시&lt;/b&gt;&lt;font color=&quot;#000000&quot;&gt;&lt;br&gt;&lt;/font&gt;" style="text;html=1;align=center;verticalAlign=middle;resizable=0;points=[];autosize=1;strokeColor=none;fillColor=none;" vertex="1" parent="1">
          <mxGeometry x="229.5" y="290" width="108" height="55" as="geometry" />
        </mxCell>
        <mxCell id="_ksSLjebN5ixidT2kmzD-8" value="&lt;font color=&quot;#000000&quot;&gt;18&lt;br&gt;&lt;/font&gt;" style="text;html=1;align=center;verticalAlign=middle;resizable=0;points=[];autosize=1;strokeColor=none;fillColor=none;" vertex="1" parent="1">
          <mxGeometry x="645" y="291" width="31" height="26" as="geometry" />
        </mxCell>
        <mxCell id="_ksSLjebN5ixidT2kmzD-10" value="" style="endArrow=none;html=1;rounded=0;strokeColor=#000000;" edge="1" parent="1">
          <mxGeometry width="50" height="50" relative="1" as="geometry">
            <mxPoint x="183" y="284" as="sourcePoint" />
            <mxPoint x="183" y="277" as="targetPoint" />
          </mxGeometry>
        </mxCell>
        <mxCell id="_ksSLjebN5ixidT2kmzD-11" value="" style="endArrow=none;html=1;rounded=0;strokeColor=#000000;" edge="1" parent="1">
          <mxGeometry width="50" height="50" relative="1" as="geometry">
            <mxPoint x="80" y="289" as="sourcePoint" />
            <mxPoint x="80" y="273" as="targetPoint" />
          </mxGeometry>
        </mxCell>
        <mxCell id="_ksSLjebN5ixidT2kmzD-12" value="&lt;font color=&quot;#000000&quot;&gt;3&lt;br&gt;&lt;/font&gt;&lt;font color=&quot;#000000&quot;&gt;&lt;b&gt;에코티브 제품 확장&lt;br&gt;&lt;/b&gt;&lt;/font&gt;&lt;b style=&quot;color: rgb(0, 0, 0);&quot;&gt;1차 설문조사 실시&lt;/b&gt;&lt;font color=&quot;#000000&quot;&gt;&lt;br&gt;&lt;/font&gt;" style="text;html=1;align=center;verticalAlign=middle;resizable=0;points=[];autosize=1;strokeColor=none;fillColor=none;" vertex="1" parent="1">
          <mxGeometry x="128.5" y="291" width="108" height="55" as="geometry" />
        </mxCell>
        <mxCell id="_ksSLjebN5ixidT2kmzD-13" value="&lt;font color=&quot;#000000&quot;&gt;Unit : month&lt;/font&gt;" style="text;html=1;align=center;verticalAlign=middle;resizable=0;points=[];autosize=1;strokeColor=none;fillColor=none;" vertex="1" parent="1">
          <mxGeometry x="63" y="206" width="83" height="26" as="geometry" />
        </mxCell>
        <mxCell id="_ksSLjebN5ixidT2kmzD-15" value="" style="ellipse;shape=doubleEllipse;whiteSpace=wrap;html=1;aspect=fixed;strokeColor=none;fillColor=#a20025;fontColor=#ffffff;" vertex="1" parent="1">
          <mxGeometry x="178" y="253" width="11" height="11" as="geometry" />
        </mxCell>
        <mxCell id="_ksSLjebN5ixidT2kmzD-17" value="" style="ellipse;shape=doubleEllipse;whiteSpace=wrap;html=1;aspect=fixed;strokeColor=none;fillColor=#a20025;fontColor=#ffffff;" vertex="1" parent="1">
          <mxGeometry x="278" y="252" width="11" height="11" as="geometry" />
        </mxCell>
        <mxCell id="_ksSLjebN5ixidT2kmzD-18" value="" style="ellipse;shape=doubleEllipse;whiteSpace=wrap;html=1;aspect=fixed;strokeColor=none;fillColor=#a20025;fontColor=#ffffff;" vertex="1" parent="1">
          <mxGeometry x="457" y="251" width="11" height="11" as="geometry" />
        </mxCell>
        <mxCell id="_ksSLjebN5ixidT2kmzD-19" value="" style="ellipse;shape=doubleEllipse;whiteSpace=wrap;html=1;aspect=fixed;strokeColor=none;fillColor=#a20025;fontColor=#ffffff;" vertex="1" parent="1">
          <mxGeometry x="838" y="255" width="11" height="11" as="geometry" />
        </mxCell>
        <mxCell id="_ksSLjebN5ixidT2kmzD-20" value="&lt;font color=&quot;#000000&quot;&gt;12&lt;br&gt;&lt;b&gt;원단 개발 완료&lt;/b&gt;&lt;br&gt;&lt;/font&gt;&lt;b style=&quot;color: rgb(0, 0, 0);&quot;&gt;3차 설문조사 실시&lt;/b&gt;&lt;font color=&quot;#000000&quot;&gt;&lt;br&gt;&lt;/font&gt;" style="text;html=1;align=center;verticalAlign=middle;resizable=0;points=[];autosize=1;strokeColor=none;fillColor=none;" vertex="1" parent="1">
          <mxGeometry x="410.5" y="291" width="104" height="55" as="geometry" />
        </mxCell>
        <mxCell id="_ksSLjebN5ixidT2kmzD-21" value="&lt;span style=&quot;color: rgb(0, 0, 0);&quot;&gt;24&lt;br&gt;&lt;/span&gt;&lt;b style=&quot;color: rgb(0, 0, 0);&quot;&gt;4차 설문조사 실시&lt;/b&gt;&lt;font color=&quot;#000000&quot;&gt;&lt;br&gt;&lt;/font&gt;" style="text;html=1;align=center;verticalAlign=middle;resizable=0;points=[];autosize=1;strokeColor=none;fillColor=none;" vertex="1" parent="1">
          <mxGeometry x="791.5" y="286" width="104" height="41" as="geometry" />
        </mxCell>
        <mxCell id="_ksSLjebN5ixidT2kmzD-22" value="&lt;font color=&quot;#000000&quot;&gt;홈페이지 리뉴얼&lt;br&gt;친환경 광고&lt;br&gt;재수거 캠페인&lt;br&gt;친환경 원단 개발&lt;br&gt;온라인 챌린지&lt;br&gt;&lt;/font&gt;" style="text;html=1;align=center;verticalAlign=middle;resizable=0;points=[];autosize=1;strokeColor=none;fillColor=none;" vertex="1" parent="1">
          <mxGeometry x="28" y="291" width="97" height="84" as="geometry" />
        </mxCell>
        <mxCell id="_ksSLjebN5ixidT2kmzD-23" value="" style="ellipse;shape=doubleEllipse;whiteSpace=wrap;html=1;aspect=fixed;strokeColor=none;fillColor=#0050ef;fontColor=#ffffff;" vertex="1" parent="1">
          <mxGeometry x="75" y="253" width="11" height="11" as="geometry" />
        </mxCell>
        <mxCell id="_ksSLjebN5ixidT2kmzD-24" value="" style="ellipse;shape=doubleEllipse;whiteSpace=wrap;html=1;aspect=fixed;strokeColor=none;fillColor=#0050ef;fontColor=#ffffff;" vertex="1" parent="1">
          <mxGeometry x="178" y="238" width="11" height="11" as="geometry" />
        </mxCell>
        <mxCell id="_ksSLjebN5ixidT2kmzD-25" value="" style="ellipse;shape=doubleEllipse;whiteSpace=wrap;html=1;aspect=fixed;strokeColor=none;fillColor=#0050ef;fontColor=#ffffff;" vertex="1" parent="1">
          <mxGeometry x="278" y="237" width="11" height="11" as="geometry" />
        </mxCell>
        <mxCell id="_ksSLjebN5ixidT2kmzD-27" value="" style="ellipse;shape=doubleEllipse;whiteSpace=wrap;html=1;aspect=fixed;strokeColor=none;fillColor=#0050ef;fontColor=#ffffff;" vertex="1" parent="1">
          <mxGeometry x="457" y="237" width="11" height="11" as="geometry" />
        </mxCell>
        <mxCell id="_ksSLjebN5ixidT2kmzD-28" value="" style="ellipse;shape=doubleEllipse;whiteSpace=wrap;html=1;aspect=fixed;strokeColor=none;fillColor=#a20025;fontColor=#ffffff;" vertex="1" parent="1">
          <mxGeometry x="75" y="193" width="11" height="11" as="geometry" />
        </mxCell>
        <mxCell id="_ksSLjebN5ixidT2kmzD-29" value="" style="ellipse;shape=doubleEllipse;whiteSpace=wrap;html=1;aspect=fixed;strokeColor=none;fillColor=#0050ef;fontColor=#ffffff;" vertex="1" parent="1">
          <mxGeometry x="75" y="178" width="11" height="11" as="geometry" />
        </mxCell>
        <mxCell id="_ksSLjebN5ixidT2kmzD-31" value="&lt;font color=&quot;#000000&quot;&gt;: 마케팅 이벤트&lt;br&gt;&lt;/font&gt;&lt;div style=&quot;&quot;&gt;&lt;span style=&quot;background-color: initial;&quot;&gt;&lt;font color=&quot;#000000&quot;&gt;: 설문조사&amp;nbsp;&lt;/font&gt;&lt;/span&gt;&lt;/div&gt;" style="text;html=1;align=left;verticalAlign=middle;resizable=0;points=[];autosize=1;strokeColor=none;fillColor=none;" vertex="1" parent="1">
          <mxGeometry x="89" y="170" width="90" height="41" as="geometry" />
        </mxCell>
        <mxCell id="_ksSLjebN5ixidT2kmzD-32" value="" style="ellipse;shape=doubleEllipse;whiteSpace=wrap;html=1;aspect=fixed;strokeColor=none;fillColor=#0050ef;fontColor=#ffffff;" vertex="1" parent="1">
          <mxGeometry x="655" y="255" width="11" height="11" as="geometry" />
        </mxCell>
        <mxCell id="_ksSLjebN5ixidT2kmzD-33" value="&lt;font color=&quot;#000000&quot;&gt;개발한 원단을 활용한&lt;br&gt;친환경 제품 라인업&lt;br&gt;강화&lt;br&gt;&lt;/font&gt;" style="text;html=1;align=center;verticalAlign=middle;resizable=0;points=[];autosize=1;strokeColor=none;fillColor=none;" vertex="1" parent="1">
          <mxGeometry x="601.5" y="311" width="118" height="55" as="geometry" />
        </mxCell>
      </root>
    </mxGraphModel>
  </diagram>
</mxfile>
